<svg width="26" height="26" viewBox="0 0 26 26" fill="none" xmlns="http://www.w3.org/2000/svg">
<path d="M22.3333 8.61343L15.2226 3.08277C14.5986 2.59731 13.8306 2.33374 13.04 2.33374C12.2494 2.33374 11.4813 2.59731 10.8573 3.08277L3.74529 8.61343C3.31788 8.94581 2.97208 9.37147 2.7343 9.8579C2.49651 10.3443 2.37304 10.8787 2.37329 11.4201V21.0201C2.37329 21.7273 2.65424 22.4056 3.15434 22.9057C3.65444 23.4058 4.33271 23.6868 5.03996 23.6868H21.04C21.7472 23.6868 22.4255 23.4058 22.9256 22.9057C23.4257 22.4056 23.7066 21.7273 23.7066 21.0201V11.4201C23.7066 10.3228 23.2 9.28677 22.3333 8.61343Z" fill="#7065F0" stroke="#7065F0" stroke-width="3" stroke-linecap="round" stroke-linejoin="round"/>
</svg>
